<svg xmlns="http://www.w3.org/2000/svg" viewBox="0 0 533.5 544.3"><path fill="#4285f4" d="M533.5 278.4c0-17.4-1.6-34.1-4.7-50.4H272v95.4h146.9c-6.3 34.1-25 62.9-53.4 82.3v68.4h86.4c50.7-46.7 81.6-115.6 81.6-195.7z"/><path fill="#34a853" d="M272 544.3c72.6 0 133.5-24.1 178-65.4l-86.4-68.4c-24.1 16.2-55 25.8-91.6 25.8-70.5 0-130.3-47.6-151.7-111.6H31.8v70.1C76.1 478 167.4 544.3 272 544.3z"/><path fill="#fbbc04" d="M120.3 323.1c-10.7-31.8-10.7-65.9 0-97.7V155.3H31.8c-38.6 76.9-38.6 168 0 244.9l88.5-77.1z"/><path fill="#ea4335" d="M272 107.7c39.5 0 75.1 13.6 103.1 40.3l77.4-77.4C405.6 24.2 344.7 0 272 0 167.4 0 76.1 66.3 31.8 155.3l88.5 70.5C141.7 155.3 201.5 107.7 272 107.7z"/></svg>